<?xml version="1.0" encoding="utf-8"?>
<!-- Generator: Adobe Illustrator 25.2.3, SVG Export Plug-In . SVG Version: 6.00 Build 0)  -->
<svg version="1.1" id="Layer_1" xmlns="http://www.w3.org/2000/svg" xmlns:xlink="http://www.w3.org/1999/xlink" x="0px" y="0px"
	 viewBox="0 0 331.2 329.7" style="enable-background:new 0 0 331.2 329.7;" xml:space="preserve">
<style type="text/css">
	.st0{opacity:8.000000e-02;fill-rule:evenodd;clip-rule:evenodd;fill:#2D2E40;enable-background:new    ;}
	.st1{opacity:0.5;fill:none;stroke:#2D2E40;enable-background:new    ;}
	.st2{opacity:0.25;fill:none;stroke:#2D2E40;enable-background:new    ;}
	.st3{filter:url(#a);}
	.st4{fill:#535353;}
	.st5{fill:#1D1D25;}
	.st6{fill:url(#b_7_);}
	.st7{filter:url(#Adobe_OpacityMaskFilter);}
	.st8{fill-rule:evenodd;clip-rule:evenodd;fill:#FFFFFF;}
	.st9{mask:url(#d_4_);fill:#F9F6F6;}
	.st10{filter:url(#Adobe_OpacityMaskFilter_1_);}
	.st11{mask:url(#d_3_);}
	.st12{fill:#FFFFFF;}
	.st13{fill:#E7E7E7;}
	.st14{opacity:9.800000e-02;}
	.st15{fill:#4A5166;}
	.st16{filter:url(#Adobe_OpacityMaskFilter_2_);}
	.st17{mask:url(#f_2_);fill:#2F2F47;}
	.st18{fill:#2F2F47;}
</style>
<filter  filterUnits="objectBoundingBox" height="221.7%" id="a" width="170.1%" x="-35.1%" y="-60.8%">
	<feOffset  dy="20" in="SourceAlpha" result="shadowOffsetOuter1"></feOffset>
	<feGaussianBlur  in="shadowOffsetOuter1" result="shadowBlurOuter1" stdDeviation="20"></feGaussianBlur>
	
		<feColorMatrix  in="shadowBlurOuter1" result="shadowMatrixOuter1" values="0 0 0 0 0.421821759 0 0 0 0 0.554338424 0 0 0 0 0.893710371 0 0 0 0.243444056 0">
		</feColorMatrix>
	<feMerge>
		<feMergeNode  in="shadowMatrixOuter1"></feMergeNode>
		<feMergeNode  in="SourceGraphic"></feMergeNode>
	</feMerge>
</filter>
<g>
	<g transform="translate(86 17)">
		<path class="st0" d="M80.5,260.9L80.5,260.9c61.6,0,111.5-49.9,111.5-111.5l0,0c0-61.6-49.9-111.5-111.5-111.5l0,0
			C18.9,37.9-31,87.8-31,149.4l0,0C-31,211,18.9,260.9,80.5,260.9z"/>
		<path class="st1" d="M80,273.4L80,273.4c69.3,0,125.5-56.2,125.5-125.5l0,0c0-69.3-56.2-125.5-125.5-125.5l0,0
			c-69.3,0-125.5,56.2-125.5,125.5l0,0C-45.5,217.2,10.7,273.4,80,273.4z"/>
		<path class="st2" d="M80,310.4L80,310.4c89.7,0,162.5-72.8,162.5-162.5l0,0c0-89.7-72.8-162.5-162.5-162.5l0,0
			c-89.7,0-162.5,72.8-162.5,162.5l0,0C-82.5,237.6-9.7,310.4,80,310.4z"/>
	</g>
	<g transform="translate(85 85)" class="st3">
		<path class="st4" d="M-32-8.1h228c6.6,0,12,5.4,12,12v149c0,6.6-5.4,12-12,12H-32c-6.6,0-12-5.4-12-12V3.9
			C-44-2.7-38.6-8.1-32-8.1z"/>
		<path class="st5" d="M-33-6.1h230c5.5,0,10,4.5,10,10v150c0,5.5-4.5,10-10,10H-33c-5.5,0-10-4.5-10-10V3.9
			C-43-1.6-38.5-6.1-33-6.1z"/>
		<g transform="translate(47 15)">
			<g>
				
					<linearGradient id="b_7_" gradientUnits="userSpaceOnUse" x1="-270.74" y1="459.2461" x2="-269.74" y2="458.802" gradientTransform="matrix(237 0 0 -157.94 64082.3984 72562.125)">
					<stop  offset="0" style="stop-color:#FF8F71"/>
					<stop  offset="1" style="stop-color:#FF3E55"/>
				</linearGradient>
				<path id="b_6_" class="st6" d="M-80-15.1h231c1.7,0,3,1.3,3,3v151.9c0,1.7-1.3,3-3,3H-80c-1.7,0-3-1.3-3-3V-12.1
					C-83-13.8-81.6-15.1-80-15.1z"/>
			</g>
			<defs>
				<filter id="Adobe_OpacityMaskFilter" filterUnits="userSpaceOnUse" x="-83.1" y="13.2" width="237" height="129.7">
					<feColorMatrix  type="matrix" values="1 0 0 0 0  0 1 0 0 0  0 0 1 0 0  0 0 0 1 0"/>
				</filter>
			</defs>
			<mask maskUnits="userSpaceOnUse" x="-83.1" y="13.2" width="237" height="129.7" id="d_4_">
				<g class="st7">
					<path id="b_5_" class="st8" d="M-80-15.1h231c1.7,0,3,1.3,3,3v151.9c0,1.7-1.3,3-3,3H-80c-1.7,0-3-1.3-3-3V-12.1
						C-83-13.8-81.6-15.1-80-15.1z"/>
				</g>
			</mask>
			<path class="st9" d="M-80.1,13.2h231c1.7,0,3,1.3,3,3V140c0,1.7-1.3,3-3,3h-231c-1.7,0-3-1.3-3-3V16.2
				C-83.1,14.6-81.8,13.2-80.1,13.2z"/>
			<defs>
				<filter id="Adobe_OpacityMaskFilter_1_" filterUnits="userSpaceOnUse" x="-49.5" y="2.5" width="170" height="120.6">
					<feColorMatrix  type="matrix" values="1 0 0 0 0  0 1 0 0 0  0 0 1 0 0  0 0 0 1 0"/>
				</filter>
			</defs>
			<mask maskUnits="userSpaceOnUse" x="-49.5" y="2.5" width="170" height="120.6" id="d_3_">
				<g class="st10">
					<path id="b_4_" class="st8" d="M-80-15.1h231c1.7,0,3,1.3,3,3v151.9c0,1.7-1.3,3-3,3H-80c-1.7,0-3-1.3-3-3V-12.1
						C-83-13.8-81.6-15.1-80-15.1z"/>
				</g>
			</mask>
			<g class="st11">
				<g transform="translate(33.478 17.615)">
					<path class="st12" d="M-80-15.1h44c1.7,0,3,1.3,3,3v114.6c0,1.7-1.3,3-3,3h-44c-1.7,0-3-1.3-3-3V-12.1
						C-83-13.8-81.6-15.1-80-15.1z"/>
					<path class="st12" d="M-21.5-15.1H84.1c1.7,0,3,1.3,3,3v114.6c0,1.7-1.3,3-3,3H-21.5c-1.7,0-3-1.3-3-3V-12.1
						C-24.5-13.8-23.2-15.1-21.5-15.1z"/>
					<path class="st13" d="M-16.7-8.7h96c1.7,0,3,1.3,3,3v22.3c0,1.7-1.3,3-3,3h-96c-1.7,0-3-1.3-3-3V-5.7
						C-19.7-7.4-18.4-8.7-16.7-8.7z"/>
					<path class="st13" d="M-16.7,25.5H7.5c1.7,0,3,1.3,3,3v22.3c0,1.7-1.3,3-3,3h-24.3c-1.7,0-3-1.3-3-3V28.5
						C-19.7,26.8-18.4,25.5-16.7,25.5z"/>
					<path class="st13" d="M21,25.5h58.3c1.7,0,3,1.3,3,3v22.3c0,1.7-1.3,3-3,3H21c-1.7,0-3-1.3-3-3V28.5C18,26.8,19.3,25.5,21,25.5
						z"/>
				</g>
			</g>
		</g>
		<g transform="translate(164)" class="st14">
			<path class="st15" d="M-82.5-15.1h5.1c0.3,0,0.5,0.2,0.5,0.5l0,0c0,0.3-0.2,0.5-0.5,0.5h-5.1c-0.3,0-0.5-0.2-0.5-0.5l0,0
				C-83-14.9-82.8-15.1-82.5-15.1z"/>
			<path class="st15" d="M-74.9-15.1h0.4c0.3,0,0.5,0.2,0.5,0.5l0,0c0,0.3-0.2,0.5-0.5,0.5h-0.4c-0.3,0-0.5-0.2-0.5-0.5l0,0
				C-75.4-14.9-75.2-15.1-74.9-15.1z"/>
		</g>
		<g transform="translate(0 178)">
			<g>
				<path id="e_4_" class="st15" d="M-83-15.1"/>
			</g>
			<defs>
				<filter id="Adobe_OpacityMaskFilter_2_" filterUnits="userSpaceOnUse" x="54.2" y="-33.7" width="53.6" height="23.2">
					<feColorMatrix  type="matrix" values="1 0 0 0 0  0 1 0 0 0  0 0 1 0 0  0 0 0 1 0"/>
				</filter>
			</defs>
			<mask maskUnits="userSpaceOnUse" x="54.2" y="-33.7" width="53.6" height="23.2" id="f_2_">
				<g class="st16">
					<path id="e_3_" class="st15" d="M-83-15.1"/>
				</g>
			</mask>
			<path class="st17" d="M64.2-33.7h33.6c5.5,0,10,4.5,10,10v3.2c0,5.5-4.5,10-10,10H64.2c-5.5,0-10-4.5-10-10v-3.2
				C54.2-29.3,58.7-33.7,64.2-33.7z"/>
		</g>
		<path class="st18" d="M-83-15.1"/>
	</g>
</g>
</svg>
